# Blender 4.4.3
# www.blender.org
mtllib floor_dial_converted.mtl
o Cylinder
v 0.000000 -0.115125 -0.374935
v 0.073146 -0.115125 -0.367731
v 0.143481 -0.115125 -0.346395
v 0.208303 -0.115125 -0.311747
v 0.265119 -0.115125 -0.265119
v 0.311747 -0.115125 -0.208303
v 0.346395 -0.115125 -0.143481
v 0.367731 -0.115125 -0.073146
v -0.367731 -0.115125 -0.073146
v -0.346395 -0.115125 -0.143481
v -0.311747 -0.115125 -0.208303
v -0.265119 -0.115125 -0.265119
v -0.208303 -0.115125 -0.311747
v -0.143481 -0.115125 -0.346395
v -0.073146 -0.115125 -0.367731
v 0.372983 -0.115125 -0.020731
v 0.372983 0.115125 -0.020731
v -0.372804 -0.115125 -0.020731
v -0.372804 0.115125 -0.020731
v 0.073146 0.115125 -0.367731
v 0.000000 0.115125 -0.374935
v 0.143481 0.115125 -0.346395
v 0.208303 0.115125 -0.311747
v 0.265119 0.115125 -0.265119
v 0.311747 0.115125 -0.208303
v 0.346395 0.115125 -0.143481
v 0.367731 0.115125 -0.073146
v -0.346395 0.115125 -0.143481
v 0.340083 0.115125 -0.050499
v -0.367731 0.115125 -0.073146
v -0.311747 0.115125 -0.208303
v -0.265119 0.115125 -0.265119
v -0.208303 0.115125 -0.311747
v -0.143481 0.115125 -0.346395
v -0.073146 0.115125 -0.367731
v -0.340016 0.115125 -0.050499
v 0.000090 0.115125 -0.020731
v 0.009013 0.115125 -0.335080
v 0.000000 0.115125 -0.354079
v -0.009011 0.115125 -0.335080
v 0.056196 0.115125 -0.330433
v 0.073898 0.115125 -0.326978
v 0.069077 0.115125 -0.347275
v 0.119263 0.115125 -0.313217
v 0.136006 0.115125 -0.306419
v 0.135500 0.115125 -0.327126
v 0.177810 0.115125 -0.284074
v 0.192975 0.115125 -0.274159
v 0.196716 0.115125 -0.294406
v 0.229617 0.115125 -0.244088
v 0.242625 0.115125 -0.231400
v 0.250372 0.115125 -0.250372
v 0.272701 0.115125 -0.194752
v 0.283037 0.115125 -0.179750
v 0.294406 0.115125 -0.196716
v 0.305397 0.115125 -0.137918
v 0.312639 0.115125 -0.121167
v 0.327126 0.115125 -0.135500
v 0.326427 0.115125 -0.075715
v 0.350376 0.115125 -0.058857
v -0.326412 0.115125 -0.075763
v -0.350360 0.115125 -0.058908
v -0.312639 0.115125 -0.121167
v -0.305396 0.115125 -0.137919
v -0.327126 0.115125 -0.135500
v -0.283037 0.115125 -0.179751
v -0.272700 0.115125 -0.194753
v -0.294406 0.115125 -0.196716
v -0.242624 0.115125 -0.231401
v -0.229616 0.115125 -0.244089
v -0.250372 0.115125 -0.250372
v -0.192974 0.115125 -0.274160
v -0.177809 0.115125 -0.284075
v -0.196716 0.115125 -0.294406
v -0.136004 0.115125 -0.306420
v -0.119261 0.115125 -0.313217
v -0.135500 0.115125 -0.327126
v -0.073896 0.115125 -0.326979
v -0.056193 0.115125 -0.330433
v -0.069077 0.115125 -0.347275
v -0.043447 0.115125 -0.118414
v -0.058615 0.115125 -0.108502
v -0.071590 0.115125 -0.095788
v -0.081828 0.115125 -0.080738
v -0.088918 0.115125 -0.063947
v 0.000033 0.115125 -0.041476
v 0.088903 0.115125 -0.063931
v 0.081877 0.115125 -0.080738
v 0.071639 0.115125 -0.095788
v 0.058663 0.115125 -0.108501
v 0.043496 0.115125 -0.118413
v 0.026743 0.115125 -0.125191
v 0.009037 0.115125 -0.128629
v -0.008987 0.115125 -0.128629
v -0.026694 0.115125 -0.125192
vn 0.0980 -0.0000 -0.9952
vn 0.2903 -0.0000 -0.9569
vn 0.4714 -0.0000 -0.8819
vn 0.6344 -0.0000 -0.7730
vn 0.7730 -0.0000 -0.6344
vn 0.8819 -0.0000 -0.4714
vn 0.9569 -0.0000 -0.2903
vn -0.9953 -0.0000 -0.0963
vn -0.9569 -0.0000 -0.2903
vn -0.8819 -0.0000 -0.4714
vn -0.7730 -0.0000 -0.6344
vn -0.6344 -0.0000 -0.7730
vn -0.4714 -0.0000 -0.8819
vn -0.2903 -0.0000 -0.9569
vn -0.0980 -0.0000 -0.9952
vn -0.0000 1.0000 -0.0000
vn 0.9950 -0.0000 -0.0997
vn -0.0000 -1.0000 -0.0000
vt 1.000000 0.500000
vt 1.000000 1.000000
vt 0.968750 1.000000
vt 0.968750 0.500000
vt 0.937500 1.000000
vt 0.937500 0.500000
vt 0.906250 1.000000
vt 0.906250 0.500000
vt 0.875000 1.000000
vt 0.875000 0.500000
vt 0.843750 1.000000
vt 0.843750 0.500000
vt 0.812500 1.000000
vt 0.812500 0.500000
vt 0.781250 1.000000
vt 0.781250 0.500000
vt 0.240755 0.500000
vt 0.240755 1.000000
vt 0.218750 1.000000
vt 0.218750 0.500000
vt 0.187500 1.000000
vt 0.187500 0.500000
vt 0.156250 1.000000
vt 0.156250 0.500000
vt 0.125000 1.000000
vt 0.125000 0.500000
vt 0.093750 1.000000
vt 0.093750 0.500000
vt 0.062500 1.000000
vt 0.062500 0.500000
vt 0.031250 1.000000
vt 0.031250 0.500000
vt 0.000000 1.000000
vt 0.000000 0.500000
vt 0.337059 0.446134
vt 0.277842 0.325795
vt 0.363818 0.431827
vt 0.758468 1.000000
vt 0.758468 0.500000
vt 0.750000 0.490000
vt 0.796822 0.485388
vt 0.841844 0.471731
vt 0.883337 0.449553
vt 0.919706 0.419706
vt 0.949553 0.383337
vt 0.971731 0.341844
vt 0.985388 0.296822
vt 0.988750 0.262688
vt 0.511364 0.263852
vt 0.514612 0.296822
vt 0.528269 0.341844
vt 0.550447 0.383337
vt 0.580294 0.419706
vt 0.616663 0.449553
vt 0.658156 0.471731
vt 0.703178 0.485388
vt 0.244247 0.332337
vt 0.244232 0.464489
vt 0.214030 0.461517
vt 0.297303 0.459298
vt 0.267119 0.330135
vt 0.326342 0.450487
vt 0.373526 0.425479
vt 0.287551 0.319449
vt 0.396980 0.406225
vt 0.405307 0.398100
vt 0.295857 0.311308
vt 0.424559 0.374632
vt 0.431175 0.365024
vt 0.302410 0.301668
vt 0.445488 0.338225
vt 0.450124 0.327478
vt 0.306908 0.290885
vt 0.458949 0.298276
vt 0.474279 0.287390
vt 0.250021 0.276488
vt 0.467691 0.281993
vt 0.049876 0.327643
vt 0.041060 0.298686
vt 0.193083 0.290971
vt 0.250021 0.276610
vt 0.025731 0.287993
vt 0.032352 0.282657
vt 0.075442 0.374694
vt 0.204174 0.311322
vt 0.094694 0.398144
vt 0.126475 0.425506
vt 0.103021 0.406263
vt 0.212480 0.319458
vt 0.222189 0.325801
vt 0.162942 0.446150
vt 0.136183 0.431851
vt 0.232913 0.330138
vt 0.202698 0.459307
vt 0.173660 0.450501
vt 0.250021 0.276549
vt 0.250057 0.263270
vt 0.488750 0.262688
vt 0.294217 0.472292
vt 0.336735 0.459392
vt 0.341844 0.471731
vt 0.296822 0.485388
vt 0.197621 0.301694
vt 0.068825 0.365097
vt 0.054513 0.338341
vt 0.250021 0.276549
vt 0.011364 0.263852
vt 0.124080 0.438461
vt 0.163265 0.459402
vt 0.158156 0.471731
vt 0.116663 0.449553
vt 0.163265 0.459402
vt 0.205783 0.472297
vt 0.203178 0.485388
vt 0.205783 0.472297
vt 0.250000 0.476650
vt 0.250000 0.490000
vt 0.336735 0.459392
vt 0.375920 0.438444
vt 0.383337 0.449553
vt 0.410266 0.410252
vt 0.419706 0.419706
vt 0.410266 0.410252
vt 0.438452 0.375897
vt 0.449553 0.383337
vt 0.459397 0.336691
vt 0.471731 0.341844
vt 0.089734 0.410280
vt 0.124080 0.438461
vt 0.080294 0.419706
vt 0.459397 0.336691
vt 0.474279 0.287514
vt 0.485388 0.296822
vt 0.040603 0.336779
vt 0.061548 0.375943
vt 0.050447 0.383337
vt 0.028269 0.341844
vt 0.089734 0.410280
vt 0.025731 0.287868
vt 0.014612 0.296822
vt 0.025731 0.287940
vt 0.474279 0.287442
vt 0.255769 0.464488
vt 0.285971 0.461511
vt 0.255785 0.332336
s 0
usemtl Material.001
f 1/1/1 21/2/1 20/3/1 2/4/1
f 2/4/2 20/3/2 22/5/2 3/6/2
f 3/6/3 22/5/3 23/7/3 4/8/3
f 4/8/4 23/7/4 24/9/4 5/10/4
f 5/10/5 24/9/5 25/11/5 6/12/5
f 6/12/6 25/11/6 26/13/6 7/14/6
f 7/14/7 26/13/7 27/15/7 8/16/7
f 18/17/8 19/18/8 30/19/8 9/20/8
f 9/20/9 30/19/9 28/21/9 10/22/9
f 10/22/10 28/21/10 31/23/10 11/24/10
f 11/24/11 31/23/11 32/25/11 12/26/11
f 12/26/12 32/25/12 33/27/12 13/28/12
f 13/28/13 33/27/13 34/29/13 14/30/13
f 14/30/14 34/29/14 35/31/14 15/32/14
f 15/32/15 35/31/15 21/33/15 1/34/15
f 45/35/16 91/36/16 47/37/16
f 8/16/17 27/15/17 17/38/17 16/39/17
f 1/40/18 2/41/18 3/42/18 4/43/18 5/44/18 6/45/18 7/46/18 8/47/18 16/48/18 18/49/18 9/50/18 10/51/18 11/52/18 12/53/18 13/54/18 14/55/18 15/56/18
f 94/57/16 40/58/16 79/59/16
f 42/60/16 92/61/16 44/62/16
f 48/63/16 90/64/16 50/65/16
f 51/66/16 89/67/16 53/68/16
f 54/69/16 88/70/16 56/71/16
f 57/72/16 87/73/16 59/74/16
f 60/75/16 86/76/16 29/77/16
f 63/78/16 61/79/16 85/80/16
f 86/81/16 62/82/16 36/83/16
f 67/84/16 83/85/16 69/86/16
f 72/87/16 70/88/16 82/89/16
f 81/90/16 75/91/16 73/92/16
f 95/93/16 78/94/16 76/95/16
f 29/77/16 86/96/16 37/97/16 17/98/16
f 43/99/16 46/100/16 22/101/16 20/102/16
f 84/103/16 66/104/16 64/105/16
f 86/106/16 36/83/16 19/107/16 37/97/16
f 74/108/16 77/109/16 34/110/16 33/111/16
f 77/112/16 80/113/16 35/114/16 34/110/16
f 80/115/16 39/116/16 21/117/16 35/114/16
f 39/116/16 43/99/16 20/102/16 21/117/16
f 46/118/16 49/119/16 23/120/16 22/101/16
f 49/119/16 52/121/16 24/122/16 23/120/16
f 52/123/16 55/124/16 25/125/16 24/122/16
f 55/124/16 58/126/16 26/127/16 25/125/16
f 71/128/16 74/129/16 33/111/16 32/130/16
f 58/131/16 60/132/16 27/133/16 26/127/16
f 65/134/16 68/135/16 31/136/16 28/137/16
f 68/135/16 71/138/16 32/130/16 31/136/16
f 62/139/16 65/134/16 28/137/16 30/140/16
f 36/83/16 62/141/16 30/140/16 19/107/16
f 60/142/16 29/77/16 17/98/16 27/133/16
f 81/90/16 82/89/16 83/85/16 84/103/16 85/80/16 86/76/16 87/73/16 88/70/16 89/67/16 90/64/16 91/36/16 92/61/16 93/145/16 94/57/16 95/93/16
f 43/99/16 39/116/16 38/143/16 41/144/16
f 46/100/16 43/99/16 42/60/16 44/62/16
f 49/119/16 46/118/16 45/35/16 47/37/16
f 52/121/16 49/119/16 48/63/16 50/65/16
f 55/124/16 52/123/16 51/66/16 53/68/16
f 58/126/16 55/124/16 54/69/16 56/71/16
f 60/132/16 58/131/16 57/72/16 59/74/16
f 65/134/16 62/139/16 61/79/16 63/78/16
f 68/135/16 65/134/16 64/105/16 66/104/16
f 71/138/16 68/135/16 67/84/16 69/86/16
f 74/129/16 71/128/16 70/88/16 72/87/16
f 77/109/16 74/108/16 73/92/16 75/91/16
f 80/113/16 77/112/16 76/95/16 78/94/16
f 39/116/16 80/115/16 79/59/16 40/58/16
f 93/145/16 41/144/16 38/143/16
usemtl Black
f 38/143/16 39/116/16 40/58/16
f 41/144/16 42/60/16 43/99/16
f 44/62/16 45/35/16 46/100/16
f 47/37/16 48/63/16 49/119/16
f 50/65/16 51/66/16 52/121/16
f 53/68/16 54/69/16 55/124/16
f 56/71/16 57/72/16 58/126/16
f 63/78/16 64/105/16 65/134/16
f 66/104/16 67/84/16 68/135/16
f 69/86/16 70/88/16 71/138/16
f 72/87/16 73/92/16 74/129/16
f 75/91/16 76/95/16 77/109/16
f 78/94/16 79/59/16 80/113/16
f 95/93/16 76/95/16 75/91/16 81/90/16
f 94/57/16 79/59/16 78/94/16 95/93/16
f 93/145/16 38/143/16 40/58/16 94/57/16
f 92/61/16 42/60/16 41/144/16 93/145/16
f 91/36/16 45/35/16 44/62/16 92/61/16
f 90/64/16 48/63/16 47/37/16 91/36/16
f 89/67/16 51/66/16 50/65/16 90/64/16
f 88/70/16 54/69/16 53/68/16 89/67/16
f 81/90/16 73/92/16 72/87/16 82/89/16
f 56/71/16 88/70/16 87/73/16 57/72/16
f 82/89/16 70/88/16 69/86/16 83/85/16
f 66/104/16 84/103/16 83/85/16 67/84/16
f 84/103/16 64/105/16 63/78/16 85/80/16
f 85/80/16 61/79/16 62/82/16 86/81/16
f 59/74/16 87/73/16 86/76/16 60/75/16
