# Blender 4.4.3
# www.blender.org
mtllib green_bulb._transforms.mtl
o Green_Light_Bulb
v 0.044851 0.000000 -0.044851
v 0.033638 0.000000 -0.053775
v 0.022426 0.000000 -0.059332
v 0.011213 0.000000 -0.062430
v 0.000000 0.000000 -0.063429
v -0.011213 0.000000 -0.062430
v -0.022426 0.000000 -0.059332
v -0.033638 0.000000 -0.053775
v 0.044381 0.009155 -0.044381
v 0.033286 0.010107 -0.053039
v 0.022191 0.010735 -0.058443
v 0.011095 0.011095 -0.061457
v 0.000000 0.011213 -0.062430
v -0.011095 0.011095 -0.061457
v -0.022191 0.010735 -0.058443
v -0.033286 0.010107 -0.053039
v 0.042942 0.018310 -0.042942
v 0.032206 0.020214 -0.050768
v 0.021471 0.021471 -0.055689
v 0.010735 0.022191 -0.058443
v 0.000000 0.022426 -0.059332
v -0.010735 0.022191 -0.058443
v -0.021471 0.021471 -0.055689
v -0.032206 0.020214 -0.050768
v 0.040428 0.027466 -0.040428
v 0.030321 0.030321 -0.046739
v 0.020214 0.032206 -0.050768
v 0.010107 0.033286 -0.053039
v 0.000000 0.033638 -0.053775
v -0.010107 0.033286 -0.053039
v -0.020214 0.032206 -0.050768
v -0.030321 0.030321 -0.046739
v -0.044851 0.000000 -0.044851
v -0.053775 0.000000 -0.033638
v -0.059332 0.000000 -0.022426
v -0.062430 0.000000 -0.011213
v -0.063429 0.000000 0.000000
v -0.062430 0.000000 0.011213
v -0.059332 0.000000 0.022426
v -0.053775 0.000000 0.033638
v -0.044381 0.009155 -0.044381
v -0.053039 0.010107 -0.033286
v -0.058443 0.010735 -0.022191
v -0.061457 0.011095 -0.011095
v -0.062430 0.011213 0.000000
v -0.061457 0.011095 0.011095
v -0.058443 0.010735 0.022191
v -0.053039 0.010107 0.033286
v -0.042942 0.018310 -0.042942
v -0.050768 0.020214 -0.032206
v -0.055689 0.021471 -0.021471
v -0.058443 0.022191 -0.010735
v -0.059332 0.022426 0.000000
v -0.058443 0.022191 0.010735
v -0.055689 0.021471 0.021471
v -0.050768 0.020214 0.032206
v -0.040428 0.027466 -0.040428
v -0.046739 0.030321 -0.030321
v -0.050768 0.032206 -0.020214
v -0.053039 0.033286 -0.010107
v -0.053775 0.033638 0.000000
v -0.053039 0.033286 0.010107
v -0.050768 0.032206 0.020214
v -0.046739 0.030321 0.030321
v -0.044851 0.000000 0.044851
v -0.033638 0.000000 0.053775
v -0.022426 0.000000 0.059332
v -0.011213 0.000000 0.062430
v 0.000000 0.000000 0.063429
v 0.011213 0.000000 0.062430
v 0.022426 0.000000 0.059332
v 0.033638 0.000000 0.053775
v -0.044381 0.009155 0.044381
v -0.033286 0.010107 0.053039
v -0.022191 0.010735 0.058443
v -0.011095 0.011095 0.061457
v 0.000000 0.011213 0.062430
v 0.011095 0.011095 0.061457
v 0.022191 0.010735 0.058443
v 0.033286 0.010107 0.053039
v -0.042942 0.018310 0.042942
v -0.032206 0.020214 0.050768
v -0.021471 0.021471 0.055689
v -0.010735 0.022191 0.058443
v 0.000000 0.022426 0.059332
v 0.010735 0.022191 0.058443
v 0.021471 0.021471 0.055689
v 0.032206 0.020214 0.050768
v -0.040428 0.027466 0.040428
v -0.030321 0.030321 0.046739
v -0.020214 0.032206 0.050768
v -0.010107 0.033286 0.053039
v 0.000000 0.033638 0.053775
v 0.010107 0.033286 0.053039
v 0.020214 0.032206 0.050768
v 0.030321 0.030321 0.046739
v 0.044851 0.000000 0.044851
v 0.053775 0.000000 0.033638
v 0.059332 0.000000 0.022426
v 0.062430 0.000000 0.011213
v 0.063429 0.000000 0.000000
v 0.062430 0.000000 -0.011213
v 0.059332 0.000000 -0.022426
v 0.053775 0.000000 -0.033638
v 0.044381 0.009155 0.044381
v 0.053039 0.010107 0.033286
v 0.058443 0.010735 0.022191
v 0.061457 0.011095 0.011095
v 0.062430 0.011213 0.000000
v 0.061457 0.011095 -0.011095
v 0.058443 0.010735 -0.022191
v 0.053039 0.010107 -0.033286
v 0.042942 0.018310 0.042942
v 0.050768 0.020214 0.032206
v 0.055689 0.021471 0.021471
v 0.058443 0.022191 0.010735
v 0.059332 0.022426 0.000000
v 0.058443 0.022191 -0.010735
v 0.055689 0.021471 -0.021471
v 0.050768 0.020214 -0.032206
v 0.040428 0.027466 0.040428
v 0.046739 0.030321 0.030321
v 0.050768 0.032206 0.020214
v 0.053039 0.033286 0.010107
v 0.053775 0.033638 0.000000
v 0.053039 0.033286 -0.010107
v 0.050768 0.032206 -0.020214
v 0.046739 0.030321 -0.030321
v 0.036621 0.036621 -0.036621
v 0.027466 0.040428 -0.040428
v 0.018310 0.042942 -0.042942
v 0.009155 0.044381 -0.044381
v 0.000000 0.044851 -0.044851
v -0.009155 0.044381 -0.044381
v -0.018310 0.042942 -0.042942
v -0.027466 0.040428 -0.040428
v -0.036621 0.036621 -0.036621
v 0.040428 0.040428 -0.027466
v 0.030321 0.046739 -0.030321
v 0.020214 0.050768 -0.032206
v 0.010107 0.053039 -0.033286
v 0.000000 0.053775 -0.033638
v -0.010107 0.053039 -0.033286
v -0.020214 0.050768 -0.032206
v -0.030321 0.046739 -0.030321
v -0.040428 0.040428 -0.027466
v 0.042942 0.042942 -0.018310
v 0.032206 0.050768 -0.020214
v 0.021471 0.055689 -0.021471
v 0.010735 0.058443 -0.022191
v 0.000000 0.059332 -0.022426
v -0.010735 0.058443 -0.022191
v -0.021471 0.055689 -0.021471
v -0.032206 0.050768 -0.020214
v -0.042942 0.042942 -0.018310
v 0.044381 0.044381 -0.009155
v 0.033286 0.053039 -0.010107
v 0.022191 0.058443 -0.010735
v 0.011095 0.061457 -0.011095
v 0.000000 0.062430 -0.011213
v -0.011095 0.061457 -0.011095
v -0.022191 0.058443 -0.010735
v -0.033286 0.053039 -0.010107
v -0.044381 0.044381 -0.009155
v 0.044851 0.044851 0.000000
v 0.033638 0.053775 0.000000
v 0.022426 0.059332 0.000000
v 0.011213 0.062430 0.000000
v 0.000000 0.063429 0.000000
v -0.011213 0.062430 0.000000
v -0.022426 0.059332 0.000000
v -0.033638 0.053775 0.000000
v -0.044851 0.044851 0.000000
v 0.044381 0.044381 0.009155
v 0.033286 0.053039 0.010107
v 0.022191 0.058443 0.010735
v 0.011095 0.061457 0.011095
v 0.000000 0.062430 0.011213
v -0.011095 0.061457 0.011095
v -0.022191 0.058443 0.010735
v -0.033286 0.053039 0.010107
v -0.044381 0.044381 0.009155
v 0.042942 0.042942 0.018310
v 0.032206 0.050768 0.020214
v 0.021471 0.055689 0.021471
v 0.010735 0.058443 0.022191
v 0.000000 0.059332 0.022426
v -0.010735 0.058443 0.022191
v -0.021471 0.055689 0.021471
v -0.032206 0.050768 0.020214
v -0.042942 0.042942 0.018310
v 0.040428 0.040428 0.027466
v 0.030321 0.046739 0.030321
v 0.020214 0.050768 0.032206
v 0.010107 0.053039 0.033286
v 0.000000 0.053775 0.033638
v -0.010107 0.053039 0.033286
v -0.020214 0.050768 0.032206
v -0.030321 0.046739 0.030321
v -0.040428 0.040428 0.027466
v 0.036621 0.036621 0.036621
v 0.027466 0.040428 0.040428
v 0.018310 0.042942 0.042942
v 0.009155 0.044381 0.044381
v 0.000000 0.044851 0.044851
v -0.009155 0.044381 0.044381
v -0.018310 0.042942 0.042942
v -0.027466 0.040428 0.040428
v -0.036621 0.036621 0.036621
v 0.053775 -0.056049 -0.033638
v 0.059332 -0.056049 -0.022426
v 0.062430 -0.056049 -0.011213
v 0.063429 -0.056049 0.000000
v 0.062430 -0.056049 0.011213
v 0.059332 -0.056049 0.022426
v 0.053775 -0.056049 0.033638
v 0.044851 -0.056049 0.044851
v 0.033638 -0.056049 0.053775
v 0.022426 -0.056049 0.059332
v 0.011213 -0.056049 0.062430
v 0.000000 -0.056049 0.063429
v -0.011213 -0.056049 0.062430
v -0.022426 -0.056049 0.059332
v -0.033638 -0.056049 0.053775
v -0.044851 -0.056049 0.044851
v -0.053775 -0.056049 0.033638
v -0.059332 -0.056049 0.022426
v -0.062430 -0.056049 0.011213
v -0.063429 -0.056049 0.000000
v -0.062430 -0.056049 -0.011213
v -0.059332 -0.056049 -0.022426
v -0.053775 -0.056049 -0.033638
v -0.044851 -0.056049 -0.044851
v -0.033638 -0.056049 -0.053775
v -0.022426 -0.056049 -0.059332
v -0.011213 -0.056049 -0.062430
v 0.000000 -0.056049 -0.063429
v 0.011213 -0.056049 -0.062430
v 0.022426 -0.056049 -0.059332
v 0.033638 -0.056049 -0.053775
v 0.044851 -0.056049 -0.044851
vn 0.2663 -0.0000 -0.9639
vn 0.9639 -0.0000 -0.2663
vn -0.9639 -0.0000 0.2663
vn 0.0887 -0.0000 0.9961
vn 0.4441 -0.0000 -0.8960
vn 0.9961 -0.0000 -0.0887
vn -0.9961 -0.0000 0.0887
vn -0.0887 -0.0000 0.9961
vn 0.6192 0.0753 -0.7816
vn 0.4414 0.0821 -0.8936
vn 0.2646 0.0862 -0.9605
vn 0.0882 0.0882 -0.9922
vn -0.0882 0.0882 -0.9922
vn -0.2646 0.0862 -0.9605
vn -0.4414 0.0821 -0.8936
vn -0.6192 0.0753 -0.7816
vn 0.6056 0.2262 -0.7629
vn 0.4317 0.2465 -0.8677
vn 0.2587 0.2587 -0.9307
vn 0.0862 0.2646 -0.9605
vn -0.0862 0.2646 -0.9605
vn -0.2587 0.2587 -0.9307
vn -0.4317 0.2465 -0.8677
vn -0.6056 0.2262 -0.7629
vn 0.5773 0.3777 -0.7239
vn 0.4113 0.4113 -0.8134
vn 0.2465 0.4317 -0.8677
vn 0.0821 0.4414 -0.8936
vn -0.0821 0.4414 -0.8936
vn -0.2465 0.4317 -0.8677
vn -0.4113 0.4113 -0.8134
vn -0.5773 0.3777 -0.7239
vn 0.5307 0.5307 -0.6608
vn 0.3777 0.5773 -0.7239
vn 0.2262 0.6056 -0.7629
vn 0.0753 0.6192 -0.7816
vn -0.0753 0.6192 -0.7816
vn -0.2262 0.6056 -0.7629
vn -0.3777 0.5773 -0.7239
vn -0.5307 0.5307 -0.6608
vn -0.6227 -0.0000 -0.7825
vn 0.6227 -0.0000 -0.7825
vn 0.9961 -0.0000 0.0887
vn -0.4441 -0.0000 -0.8960
vn -0.9961 -0.0000 -0.0887
vn -0.2663 -0.0000 0.9639
vn 0.9639 -0.0000 0.2663
vn -0.2663 -0.0000 -0.9639
vn -0.7816 0.0753 -0.6192
vn -0.8936 0.0821 -0.4414
vn -0.9605 0.0862 -0.2646
vn -0.9922 0.0882 -0.0882
vn -0.9922 0.0882 0.0882
vn -0.9605 0.0862 0.2646
vn -0.8936 0.0821 0.4414
vn -0.7816 0.0753 0.6192
vn -0.7629 0.2262 -0.6056
vn -0.8677 0.2465 -0.4317
vn -0.9307 0.2587 -0.2587
vn -0.9605 0.2646 -0.0862
vn -0.9605 0.2646 0.0862
vn -0.9307 0.2587 0.2587
vn -0.8677 0.2465 0.4317
vn -0.7629 0.2262 0.6056
vn -0.7239 0.3777 -0.5773
vn -0.8134 0.4113 -0.4113
vn -0.8677 0.4317 -0.2465
vn -0.8936 0.4414 -0.0821
vn -0.8936 0.4414 0.0821
vn -0.8677 0.4317 0.2465
vn -0.8134 0.4113 0.4113
vn -0.7239 0.3777 0.5773
vn -0.6608 0.5307 -0.5307
vn -0.7239 0.5773 -0.3777
vn -0.7629 0.6056 -0.2262
vn -0.7816 0.6192 -0.0753
vn -0.7816 0.6192 0.0753
vn -0.7629 0.6056 0.2262
vn -0.7239 0.5773 0.3777
vn -0.6608 0.5307 0.5307
vn -0.9639 -0.0000 -0.2663
vn -0.4441 -0.0000 0.8960
vn 0.8960 -0.0000 0.4441
vn 0.6227 -0.0000 0.7825
vn -0.0887 -0.0000 -0.9961
vn -0.8960 -0.0000 -0.4441
vn -0.6227 -0.0000 0.7825
vn 0.7825 -0.0000 0.6227
vn -0.6192 0.0753 0.7816
vn -0.4414 0.0821 0.8936
vn -0.2646 0.0862 0.9605
vn -0.0882 0.0882 0.9922
vn 0.0882 0.0882 0.9922
vn 0.2646 0.0862 0.9605
vn 0.4414 0.0821 0.8936
vn 0.6192 0.0753 0.7816
vn -0.6056 0.2262 0.7629
vn -0.4317 0.2465 0.8677
vn -0.2587 0.2587 0.9307
vn -0.0862 0.2646 0.9605
vn 0.0862 0.2646 0.9605
vn 0.2587 0.2587 0.9307
vn 0.4317 0.2465 0.8677
vn 0.6056 0.2262 0.7629
vn -0.5773 0.3777 0.7239
vn -0.4113 0.4113 0.8134
vn -0.2465 0.4317 0.8677
vn -0.0821 0.4414 0.8936
vn 0.0821 0.4414 0.8936
vn 0.2465 0.4317 0.8677
vn 0.4113 0.4113 0.8134
vn 0.5773 0.3777 0.7239
vn -0.5307 0.5307 0.6608
vn -0.3777 0.5773 0.7239
vn -0.2262 0.6056 0.7629
vn -0.0753 0.6192 0.7816
vn 0.0753 0.6192 0.7816
vn 0.2262 0.6056 0.7629
vn 0.3777 0.5773 0.7239
vn 0.5307 0.5307 0.6608
vn -0.7825 -0.0000 0.6227
vn 0.4441 -0.0000 0.8960
vn 0.7825 -0.0000 -0.6227
vn 0.0887 -0.0000 -0.9961
vn -0.7825 -0.0000 -0.6227
vn 0.8960 -0.0000 -0.4441
vn -0.8960 -0.0000 0.4441
vn 0.2663 -0.0000 0.9639
vn 0.7816 0.0753 0.6192
vn 0.8936 0.0821 0.4414
vn 0.9605 0.0862 0.2646
vn 0.9922 0.0882 0.0882
vn 0.9922 0.0882 -0.0882
vn 0.9605 0.0862 -0.2646
vn 0.8936 0.0821 -0.4414
vn 0.7816 0.0753 -0.6192
vn 0.7629 0.2262 0.6056
vn 0.8677 0.2465 0.4317
vn 0.9307 0.2587 0.2587
vn 0.9605 0.2646 0.0862
vn 0.9605 0.2646 -0.0862
vn 0.9307 0.2587 -0.2587
vn 0.8677 0.2465 -0.4317
vn 0.7629 0.2262 -0.6056
vn 0.7239 0.3777 0.5773
vn 0.8134 0.4113 0.4113
vn 0.8677 0.4317 0.2465
vn 0.8936 0.4414 0.0821
vn 0.8936 0.4414 -0.0821
vn 0.8677 0.4317 -0.2465
vn 0.8134 0.4113 -0.4113
vn 0.7239 0.3777 -0.5773
vn 0.6608 0.5307 0.5307
vn 0.7239 0.5773 0.3777
vn 0.7629 0.6056 0.2262
vn 0.7816 0.6192 0.0753
vn 0.7816 0.6192 -0.0753
vn 0.7629 0.6056 -0.2262
vn 0.7239 0.5773 -0.3777
vn 0.6608 0.5307 -0.5307
vn 0.5307 0.6608 -0.5307
vn 0.3777 0.7239 -0.5773
vn 0.2262 0.7629 -0.6056
vn 0.0753 0.7816 -0.6192
vn -0.0753 0.7816 -0.6192
vn -0.2262 0.7629 -0.6056
vn -0.3777 0.7239 -0.5773
vn -0.5307 0.6608 -0.5307
vn 0.5773 0.7239 -0.3777
vn 0.4113 0.8134 -0.4113
vn 0.2465 0.8677 -0.4317
vn 0.0821 0.8936 -0.4414
vn -0.0821 0.8936 -0.4414
vn -0.2465 0.8677 -0.4317
vn -0.4113 0.8134 -0.4113
vn -0.5773 0.7239 -0.3777
vn 0.6056 0.7629 -0.2262
vn 0.4317 0.8677 -0.2465
vn 0.2587 0.9307 -0.2587
vn 0.0862 0.9605 -0.2646
vn -0.0862 0.9605 -0.2646
vn -0.2587 0.9307 -0.2587
vn -0.4317 0.8677 -0.2465
vn -0.6056 0.7629 -0.2262
vn 0.6192 0.7816 -0.0753
vn 0.4414 0.8936 -0.0821
vn 0.2646 0.9605 -0.0862
vn 0.0882 0.9922 -0.0882
vn -0.0882 0.9922 -0.0882
vn -0.2646 0.9605 -0.0862
vn -0.4414 0.8936 -0.0821
vn -0.6192 0.7816 -0.0753
vn 0.6192 0.7816 0.0753
vn 0.4414 0.8936 0.0821
vn 0.2646 0.9605 0.0862
vn 0.0882 0.9922 0.0882
vn -0.0882 0.9922 0.0882
vn -0.2646 0.9605 0.0862
vn -0.4414 0.8936 0.0821
vn -0.6192 0.7816 0.0753
vn 0.6056 0.7629 0.2262
vn 0.4317 0.8677 0.2465
vn 0.2587 0.9307 0.2587
vn 0.0862 0.9605 0.2646
vn -0.0862 0.9605 0.2646
vn -0.2587 0.9307 0.2587
vn -0.4317 0.8677 0.2465
vn -0.6056 0.7629 0.2262
vn 0.5773 0.7239 0.3777
vn 0.4113 0.8134 0.4113
vn 0.2465 0.8677 0.4317
vn 0.0821 0.8936 0.4414
vn -0.0821 0.8936 0.4414
vn -0.2465 0.8677 0.4317
vn -0.4113 0.8134 0.4113
vn -0.5773 0.7239 0.3777
vn 0.5307 0.6608 0.5307
vn 0.3777 0.7239 0.5773
vn 0.2262 0.7629 0.6056
vn 0.0753 0.7816 0.6192
vn -0.0753 0.7816 0.6192
vn -0.2262 0.7629 0.6056
vn -0.3777 0.7239 0.5773
vn -0.5307 0.6608 0.5307
s 0
usemtl Material_0.007
f 4//1 3//1 239//1 238//1
f 103//2 102//2 212//2 211//2
f 39//3 38//3 228//3 227//3
f 70//4 69//4 221//4 220//4
f 3//5 2//5 240//5 239//5
f 102//6 101//6 213//6 212//6
f 38//7 37//7 229//7 228//7
f 69//8 68//8 222//8 221//8
f 1//9 2//9 10//9 9//9
f 2//10 3//10 11//10 10//10
f 3//11 4//11 12//11 11//11
f 4//12 5//12 13//12 12//12
f 5//13 6//13 14//13 13//13
f 6//14 7//14 15//14 14//14
f 7//15 8//15 16//15 15//15
f 8//16 33//16 41//16 16//16
f 9//17 10//17 18//17 17//17
f 10//18 11//18 19//18 18//18
f 11//19 12//19 20//19 19//19
f 12//20 13//20 21//20 20//20
f 13//21 14//21 22//21 21//21
f 14//22 15//22 23//22 22//22
f 15//23 16//23 24//23 23//23
f 16//24 41//24 49//24 24//24
f 17//25 18//25 26//25 25//25
f 18//26 19//26 27//26 26//26
f 19//27 20//27 28//27 27//27
f 20//28 21//28 29//28 28//28
f 21//29 22//29 30//29 29//29
f 22//30 23//30 31//30 30//30
f 23//31 24//31 32//31 31//31
f 24//32 49//32 57//32 32//32
f 25//33 26//33 130//33 129//33
f 26//34 27//34 131//34 130//34
f 27//35 28//35 132//35 131//35
f 28//36 29//36 133//36 132//36
f 29//37 30//37 134//37 133//37
f 30//38 31//38 135//38 134//38
f 31//39 32//39 136//39 135//39
f 32//40 57//40 137//40 136//40
f 33//41 8//41 234//41 233//41
f 2//42 1//42 241//42 240//42
f 101//43 100//43 214//43 213//43
f 8//44 7//44 235//44 234//44
f 37//45 36//45 230//45 229//45
f 68//46 67//46 223//46 222//46
f 100//47 99//47 215//47 214//47
f 7//48 6//48 236//48 235//48
f 33//49 34//49 42//49 41//49
f 34//50 35//50 43//50 42//50
f 35//51 36//51 44//51 43//51
f 36//52 37//52 45//52 44//52
f 37//53 38//53 46//53 45//53
f 38//54 39//54 47//54 46//54
f 39//55 40//55 48//55 47//55
f 40//56 65//56 73//56 48//56
f 41//57 42//57 50//57 49//57
f 42//58 43//58 51//58 50//58
f 43//59 44//59 52//59 51//59
f 44//60 45//60 53//60 52//60
f 45//61 46//61 54//61 53//61
f 46//62 47//62 55//62 54//62
f 47//63 48//63 56//63 55//63
f 48//64 73//64 81//64 56//64
f 49//65 50//65 58//65 57//65
f 50//66 51//66 59//66 58//66
f 51//67 52//67 60//67 59//67
f 52//68 53//68 61//68 60//68
f 53//69 54//69 62//69 61//69
f 54//70 55//70 63//70 62//70
f 55//71 56//71 64//71 63//71
f 56//72 81//72 89//72 64//72
f 57//73 58//73 146//73 137//73
f 58//74 59//74 155//74 146//74
f 59//75 60//75 164//75 155//75
f 60//76 61//76 173//76 164//76
f 61//77 62//77 182//77 173//77
f 62//78 63//78 191//78 182//78
f 63//79 64//79 200//79 191//79
f 64//80 89//80 209//80 200//80
f 36//81 35//81 231//81 230//81
f 67//82 66//82 224//82 223//82
f 99//83 98//83 216//83 215//83
f 97//84 72//84 218//84 217//84
f 6//85 5//85 237//85 236//85
f 35//86 34//86 232//86 231//86
f 66//87 65//87 225//87 224//87
f 98//88 97//88 217//88 216//88
f 65//89 66//89 74//89 73//89
f 66//90 67//90 75//90 74//90
f 67//91 68//91 76//91 75//91
f 68//92 69//92 77//92 76//92
f 69//93 70//93 78//93 77//93
f 70//94 71//94 79//94 78//94
f 71//95 72//95 80//95 79//95
f 72//96 97//96 105//96 80//96
f 73//97 74//97 82//97 81//97
f 74//98 75//98 83//98 82//98
f 75//99 76//99 84//99 83//99
f 76//100 77//100 85//100 84//100
f 77//101 78//101 86//101 85//101
f 78//102 79//102 87//102 86//102
f 79//103 80//103 88//103 87//103
f 80//104 105//104 113//104 88//104
f 81//105 82//105 90//105 89//105
f 82//106 83//106 91//106 90//106
f 83//107 84//107 92//107 91//107
f 84//108 85//108 93//108 92//108
f 85//109 86//109 94//109 93//109
f 86//110 87//110 95//110 94//110
f 87//111 88//111 96//111 95//111
f 88//112 113//112 121//112 96//112
f 89//113 90//113 208//113 209//113
f 90//114 91//114 207//114 208//114
f 91//115 92//115 206//115 207//115
f 92//116 93//116 205//116 206//116
f 93//117 94//117 204//117 205//117
f 94//118 95//118 203//118 204//118
f 95//119 96//119 202//119 203//119
f 96//120 121//120 201//120 202//120
f 65//121 40//121 226//121 225//121
f 72//122 71//122 219//122 218//122
f 1//123 104//123 210//123 241//123
f 5//124 4//124 238//124 237//124
f 34//125 33//125 233//125 232//125
f 104//126 103//126 211//126 210//126
f 40//127 39//127 227//127 226//127
f 71//128 70//128 220//128 219//128
f 97//129 98//129 106//129 105//129
f 98//130 99//130 107//130 106//130
f 99//131 100//131 108//131 107//131
f 100//132 101//132 109//132 108//132
f 101//133 102//133 110//133 109//133
f 102//134 103//134 111//134 110//134
f 103//135 104//135 112//135 111//135
f 104//136 1//136 9//136 112//136
f 105//137 106//137 114//137 113//137
f 106//138 107//138 115//138 114//138
f 107//139 108//139 116//139 115//139
f 108//140 109//140 117//140 116//140
f 109//141 110//141 118//141 117//141
f 110//142 111//142 119//142 118//142
f 111//143 112//143 120//143 119//143
f 112//144 9//144 17//144 120//144
f 113//145 114//145 122//145 121//145
f 114//146 115//146 123//146 122//146
f 115//147 116//147 124//147 123//147
f 116//148 117//148 125//148 124//148
f 117//149 118//149 126//149 125//149
f 118//150 119//150 127//150 126//150
f 119//151 120//151 128//151 127//151
f 120//152 17//152 25//152 128//152
f 121//153 122//153 192//153 201//153
f 122//154 123//154 183//154 192//154
f 123//155 124//155 174//155 183//155
f 124//156 125//156 165//156 174//156
f 125//157 126//157 156//157 165//157
f 126//158 127//158 147//158 156//158
f 127//159 128//159 138//159 147//159
f 128//160 25//160 129//160 138//160
f 129//161 130//161 139//161 138//161
f 130//162 131//162 140//162 139//162
f 131//163 132//163 141//163 140//163
f 132//164 133//164 142//164 141//164
f 133//165 134//165 143//165 142//165
f 134//166 135//166 144//166 143//166
f 135//167 136//167 145//167 144//167
f 136//168 137//168 146//168 145//168
f 138//169 139//169 148//169 147//169
f 139//170 140//170 149//170 148//170
f 140//171 141//171 150//171 149//171
f 141//172 142//172 151//172 150//172
f 142//173 143//173 152//173 151//173
f 143//174 144//174 153//174 152//174
f 144//175 145//175 154//175 153//175
f 145//176 146//176 155//176 154//176
f 147//177 148//177 157//177 156//177
f 148//178 149//178 158//178 157//178
f 149//179 150//179 159//179 158//179
f 150//180 151//180 160//180 159//180
f 151//181 152//181 161//181 160//181
f 152//182 153//182 162//182 161//182
f 153//183 154//183 163//183 162//183
f 154//184 155//184 164//184 163//184
f 156//185 157//185 166//185 165//185
f 157//186 158//186 167//186 166//186
f 158//187 159//187 168//187 167//187
f 159//188 160//188 169//188 168//188
f 160//189 161//189 170//189 169//189
f 161//190 162//190 171//190 170//190
f 162//191 163//191 172//191 171//191
f 163//192 164//192 173//192 172//192
f 165//193 166//193 175//193 174//193
f 166//194 167//194 176//194 175//194
f 167//195 168//195 177//195 176//195
f 168//196 169//196 178//196 177//196
f 169//197 170//197 179//197 178//197
f 170//198 171//198 180//198 179//198
f 171//199 172//199 181//199 180//199
f 172//200 173//200 182//200 181//200
f 174//201 175//201 184//201 183//201
f 175//202 176//202 185//202 184//202
f 176//203 177//203 186//203 185//203
f 177//204 178//204 187//204 186//204
f 178//205 179//205 188//205 187//205
f 179//206 180//206 189//206 188//206
f 180//207 181//207 190//207 189//207
f 181//208 182//208 191//208 190//208
f 183//209 184//209 193//209 192//209
f 184//210 185//210 194//210 193//210
f 185//211 186//211 195//211 194//211
f 186//212 187//212 196//212 195//212
f 187//213 188//213 197//213 196//213
f 188//214 189//214 198//214 197//214
f 189//215 190//215 199//215 198//215
f 190//216 191//216 200//216 199//216
f 192//217 193//217 202//217 201//217
f 193//218 194//218 203//218 202//218
f 194//219 195//219 204//219 203//219
f 195//220 196//220 205//220 204//220
f 196//221 197//221 206//221 205//221
f 197//222 198//222 207//222 206//222
f 198//223 199//223 208//223 207//223
f 199//224 200//224 209//224 208//224
